<mxfile host="app.diagrams.net" agent="Mozilla/5.0 (Macintosh; Intel Mac OS X 10.15; rv:130.0) Gecko/20100101 Firefox/130.0" version="24.7.12">
  <diagram name="Page-1" id="xzAPj3jQ7YrNUjPUc82S">
    <mxGraphModel dx="4257" dy="1802" grid="1" gridSize="10" guides="1" tooltips="1" connect="1" arrows="1" fold="1" page="0" pageScale="1" pageWidth="850" pageHeight="1100" math="0" shadow="0">
      <root>
        <mxCell id="0" />
        <mxCell id="1" parent="0" />
        <mxCell id="pNir1XspZ6FCPG3i-Ryd-4" value="" style="rounded=1;arcSize=10;dashed=0;fillColor=none;gradientColor=none;strokeWidth=2;" parent="1" vertex="1">
          <mxGeometry x="-190" y="170" width="3580" height="1150" as="geometry" />
        </mxCell>
        <mxCell id="pNir1XspZ6FCPG3i-Ryd-243" value="" style="shape=mxgraph.mockup.containers.marginRect;rectMarginTop=10;strokeColor=#666666;strokeWidth=1;dashed=0;rounded=1;arcSize=5;recursiveResize=0;html=1;whiteSpace=wrap;" parent="1" vertex="1">
          <mxGeometry x="-120" y="463" width="190" height="152" as="geometry" />
        </mxCell>
        <mxCell id="pNir1XspZ6FCPG3i-Ryd-244" value="&lt;div&gt;Git-webhooks&lt;/div&gt;" style="shape=rect;strokeColor=none;fillColor=#FF8000;strokeWidth=1;dashed=0;rounded=1;arcSize=20;fontColor=#ffffff;fontSize=17;spacing=2;spacingTop=-2;align=left;autosize=1;spacingLeft=4;resizeWidth=0;resizeHeight=0;perimeter=none;html=1;whiteSpace=wrap;" parent="pNir1XspZ6FCPG3i-Ryd-243" vertex="1">
          <mxGeometry x="5" width="130" height="30" as="geometry" />
        </mxCell>
        <mxCell id="pNir1XspZ6FCPG3i-Ryd-6" value="" style="sketch=0;points=[[0,0,0],[0.25,0,0],[0.5,0,0],[0.75,0,0],[1,0,0],[0,1,0],[0.25,1,0],[0.5,1,0],[0.75,1,0],[1,1,0],[0,0.25,0],[0,0.5,0],[0,0.75,0],[1,0.25,0],[1,0.5,0],[1,0.75,0]];outlineConnect=0;fontColor=#232F3E;gradientColor=#F78E04;gradientDirection=north;fillColor=#D05C17;strokeColor=#ffffff;dashed=0;verticalLabelPosition=bottom;verticalAlign=top;align=center;html=1;fontSize=12;fontStyle=0;aspect=fixed;shape=mxgraph.aws4.resourceIcon;resIcon=mxgraph.aws4.lambda;" parent="pNir1XspZ6FCPG3i-Ryd-243" vertex="1">
          <mxGeometry x="50" y="42" width="78" height="78" as="geometry" />
        </mxCell>
        <mxCell id="pNir1XspZ6FCPG3i-Ryd-584" style="edgeStyle=orthogonalEdgeStyle;rounded=0;orthogonalLoop=1;jettySize=auto;html=1;strokeWidth=5;" parent="1" source="pNir1XspZ6FCPG3i-Ryd-2" target="pNir1XspZ6FCPG3i-Ryd-243" edge="1">
          <mxGeometry relative="1" as="geometry" />
        </mxCell>
        <mxCell id="pNir1XspZ6FCPG3i-Ryd-2" value="Github / Bitbucket" style="sketch=0;outlineConnect=0;html=1;whiteSpace=wrap;fontSize=12;fontStyle=0;shape=mxgraph.aws4.group;grIcon=mxgraph.aws4.group_on_premise;strokeColor=#6c8ebf;fillColor=#dae8fc;verticalAlign=top;align=left;spacingLeft=30;dashed=0;" parent="1" vertex="1">
          <mxGeometry x="-510" y="481" width="133" height="116" as="geometry" />
        </mxCell>
        <mxCell id="pNir1XspZ6FCPG3i-Ryd-5" value="" style="dashed=0;html=1;shape=mxgraph.aws3.cloud;fillColor=#F58536;gradientColor=none;dashed=0;" parent="1" vertex="1">
          <mxGeometry x="-21" y="115" width="190" height="130" as="geometry" />
        </mxCell>
        <mxCell id="pNir1XspZ6FCPG3i-Ryd-18" value="" style="shape=mxgraph.mockup.containers.marginRect;rectMarginTop=10;strokeColor=#666666;strokeWidth=1;dashed=0;rounded=1;arcSize=5;recursiveResize=0;html=1;whiteSpace=wrap;" parent="1" vertex="1">
          <mxGeometry x="440" y="550" width="1590" height="300" as="geometry" />
        </mxCell>
        <mxCell id="pNir1XspZ6FCPG3i-Ryd-19" value="PR-Merge" style="shape=rect;strokeColor=none;fillColor=#008cff;strokeWidth=1;dashed=0;rounded=1;arcSize=20;fontColor=#ffffff;fontSize=17;spacing=2;spacingTop=-2;align=left;autosize=1;spacingLeft=4;resizeWidth=0;resizeHeight=0;perimeter=none;html=1;whiteSpace=wrap;" parent="pNir1XspZ6FCPG3i-Ryd-18" vertex="1">
          <mxGeometry x="5" width="100" height="30" as="geometry" />
        </mxCell>
        <mxCell id="pNir1XspZ6FCPG3i-Ryd-62" style="edgeStyle=orthogonalEdgeStyle;rounded=0;orthogonalLoop=1;jettySize=auto;html=1;" parent="pNir1XspZ6FCPG3i-Ryd-18" source="pNir1XspZ6FCPG3i-Ryd-20" target="pNir1XspZ6FCPG3i-Ryd-22" edge="1">
          <mxGeometry relative="1" as="geometry" />
        </mxCell>
        <mxCell id="pNir1XspZ6FCPG3i-Ryd-20" value="" style="shape=mxgraph.mockup.containers.marginRect;rectMarginTop=10;strokeColor=#666666;strokeWidth=1;dashed=0;rounded=1;arcSize=5;recursiveResize=0;html=1;whiteSpace=wrap;" parent="pNir1XspZ6FCPG3i-Ryd-18" vertex="1">
          <mxGeometry x="30" y="72" width="150" height="138" as="geometry" />
        </mxCell>
        <mxCell id="pNir1XspZ6FCPG3i-Ryd-21" value="Source" style="shape=rect;strokeColor=none;fillColor=#008cff;strokeWidth=1;dashed=0;rounded=1;arcSize=20;fontColor=#ffffff;fontSize=17;spacing=2;spacingTop=-2;align=left;autosize=1;spacingLeft=4;resizeWidth=0;resizeHeight=0;perimeter=none;html=1;whiteSpace=wrap;" parent="pNir1XspZ6FCPG3i-Ryd-20" vertex="1">
          <mxGeometry x="5" width="80" height="30" as="geometry" />
        </mxCell>
        <mxCell id="pNir1XspZ6FCPG3i-Ryd-24" value="Amazon S3" style="sketch=0;outlineConnect=0;fontColor=#232F3E;gradientColor=none;strokeColor=#ffffff;fillColor=#232F3E;dashed=0;verticalLabelPosition=middle;verticalAlign=bottom;align=center;html=1;whiteSpace=wrap;fontSize=10;fontStyle=1;spacing=3;shape=mxgraph.aws4.productIcon;prIcon=mxgraph.aws4.s3;" parent="pNir1XspZ6FCPG3i-Ryd-20" vertex="1">
          <mxGeometry x="35" y="36" width="80" height="100" as="geometry" />
        </mxCell>
        <mxCell id="pNir1XspZ6FCPG3i-Ryd-63" style="edgeStyle=orthogonalEdgeStyle;rounded=0;orthogonalLoop=1;jettySize=auto;html=1;" parent="pNir1XspZ6FCPG3i-Ryd-18" source="pNir1XspZ6FCPG3i-Ryd-22" target="pNir1XspZ6FCPG3i-Ryd-26" edge="1">
          <mxGeometry relative="1" as="geometry" />
        </mxCell>
        <mxCell id="pNir1XspZ6FCPG3i-Ryd-22" value="" style="shape=mxgraph.mockup.containers.marginRect;rectMarginTop=10;strokeColor=#666666;strokeWidth=1;dashed=0;rounded=1;arcSize=5;recursiveResize=0;html=1;whiteSpace=wrap;" parent="pNir1XspZ6FCPG3i-Ryd-18" vertex="1">
          <mxGeometry x="240" y="62" width="180" height="158" as="geometry" />
        </mxCell>
        <mxCell id="pNir1XspZ6FCPG3i-Ryd-23" value="TG-Plan-Service" style="shape=rect;strokeColor=none;fillColor=#008cff;strokeWidth=1;dashed=0;rounded=1;arcSize=20;fontColor=#ffffff;fontSize=17;spacing=2;spacingTop=-2;align=left;autosize=1;spacingLeft=4;resizeWidth=0;resizeHeight=0;perimeter=none;html=1;whiteSpace=wrap;" parent="pNir1XspZ6FCPG3i-Ryd-22" vertex="1">
          <mxGeometry x="5" y="1" width="146" height="28" as="geometry" />
        </mxCell>
        <mxCell id="pNir1XspZ6FCPG3i-Ryd-25" value="AWS CodeBuild" style="sketch=0;outlineConnect=0;fontColor=#232F3E;gradientColor=none;strokeColor=#ffffff;fillColor=#232F3E;dashed=0;verticalLabelPosition=middle;verticalAlign=bottom;align=center;html=1;whiteSpace=wrap;fontSize=10;fontStyle=1;spacing=3;shape=mxgraph.aws4.productIcon;prIcon=mxgraph.aws4.codebuild;" parent="pNir1XspZ6FCPG3i-Ryd-22" vertex="1">
          <mxGeometry x="35" y="46" width="80" height="110" as="geometry" />
        </mxCell>
        <mxCell id="pNir1XspZ6FCPG3i-Ryd-64" style="edgeStyle=orthogonalEdgeStyle;rounded=0;orthogonalLoop=1;jettySize=auto;html=1;" parent="pNir1XspZ6FCPG3i-Ryd-18" source="pNir1XspZ6FCPG3i-Ryd-26" target="pNir1XspZ6FCPG3i-Ryd-29" edge="1">
          <mxGeometry relative="1" as="geometry" />
        </mxCell>
        <mxCell id="pNir1XspZ6FCPG3i-Ryd-26" value="" style="shape=mxgraph.mockup.containers.marginRect;rectMarginTop=10;strokeColor=#666666;strokeWidth=1;dashed=0;rounded=1;arcSize=5;recursiveResize=0;html=1;whiteSpace=wrap;" parent="pNir1XspZ6FCPG3i-Ryd-18" vertex="1">
          <mxGeometry x="470" y="62" width="201" height="158" as="geometry" />
        </mxCell>
        <mxCell id="pNir1XspZ6FCPG3i-Ryd-27" value="TG-Plan-Git-Webhooks" style="shape=rect;strokeColor=none;fillColor=#008cff;strokeWidth=1;dashed=0;rounded=1;arcSize=20;fontColor=#ffffff;fontSize=17;spacing=2;spacingTop=-2;align=left;autosize=1;spacingLeft=4;resizeWidth=0;resizeHeight=0;perimeter=none;html=1;whiteSpace=wrap;" parent="pNir1XspZ6FCPG3i-Ryd-26" vertex="1">
          <mxGeometry x="5" y="1" width="196" height="28" as="geometry" />
        </mxCell>
        <mxCell id="pNir1XspZ6FCPG3i-Ryd-28" value="AWS CodeBuild" style="sketch=0;outlineConnect=0;fontColor=#232F3E;gradientColor=none;strokeColor=#ffffff;fillColor=#232F3E;dashed=0;verticalLabelPosition=middle;verticalAlign=bottom;align=center;html=1;whiteSpace=wrap;fontSize=10;fontStyle=1;spacing=3;shape=mxgraph.aws4.productIcon;prIcon=mxgraph.aws4.codebuild;" parent="pNir1XspZ6FCPG3i-Ryd-26" vertex="1">
          <mxGeometry x="35" y="46" width="80" height="110" as="geometry" />
        </mxCell>
        <mxCell id="pNir1XspZ6FCPG3i-Ryd-65" style="edgeStyle=orthogonalEdgeStyle;rounded=0;orthogonalLoop=1;jettySize=auto;html=1;" parent="pNir1XspZ6FCPG3i-Ryd-18" source="pNir1XspZ6FCPG3i-Ryd-29" target="pNir1XspZ6FCPG3i-Ryd-32" edge="1">
          <mxGeometry relative="1" as="geometry" />
        </mxCell>
        <mxCell id="pNir1XspZ6FCPG3i-Ryd-29" value="" style="shape=mxgraph.mockup.containers.marginRect;rectMarginTop=10;strokeColor=#666666;strokeWidth=1;dashed=0;rounded=1;arcSize=5;recursiveResize=0;html=1;whiteSpace=wrap;" parent="pNir1XspZ6FCPG3i-Ryd-18" vertex="1">
          <mxGeometry x="700" y="62" width="180" height="158" as="geometry" />
        </mxCell>
        <mxCell id="pNir1XspZ6FCPG3i-Ryd-30" value="TG-Plan-Pipelines" style="shape=rect;strokeColor=none;fillColor=#008cff;strokeWidth=1;dashed=0;rounded=1;arcSize=20;fontColor=#ffffff;fontSize=17;spacing=2;spacingTop=-2;align=left;autosize=1;spacingLeft=4;resizeWidth=0;resizeHeight=0;perimeter=none;html=1;whiteSpace=wrap;" parent="pNir1XspZ6FCPG3i-Ryd-29" vertex="1">
          <mxGeometry x="5" y="1" width="158" height="28" as="geometry" />
        </mxCell>
        <mxCell id="pNir1XspZ6FCPG3i-Ryd-31" value="AWS CodeBuild" style="sketch=0;outlineConnect=0;fontColor=#232F3E;gradientColor=none;strokeColor=#ffffff;fillColor=#232F3E;dashed=0;verticalLabelPosition=middle;verticalAlign=bottom;align=center;html=1;whiteSpace=wrap;fontSize=10;fontStyle=1;spacing=3;shape=mxgraph.aws4.productIcon;prIcon=mxgraph.aws4.codebuild;" parent="pNir1XspZ6FCPG3i-Ryd-29" vertex="1">
          <mxGeometry x="35" y="46" width="80" height="110" as="geometry" />
        </mxCell>
        <mxCell id="pNir1XspZ6FCPG3i-Ryd-66" style="edgeStyle=orthogonalEdgeStyle;rounded=0;orthogonalLoop=1;jettySize=auto;html=1;" parent="pNir1XspZ6FCPG3i-Ryd-18" source="pNir1XspZ6FCPG3i-Ryd-32" target="pNir1XspZ6FCPG3i-Ryd-35" edge="1">
          <mxGeometry relative="1" as="geometry" />
        </mxCell>
        <mxCell id="pNir1XspZ6FCPG3i-Ryd-32" value="" style="shape=mxgraph.mockup.containers.marginRect;rectMarginTop=10;strokeColor=#666666;strokeWidth=1;dashed=0;rounded=1;arcSize=5;recursiveResize=0;html=1;whiteSpace=wrap;" parent="pNir1XspZ6FCPG3i-Ryd-18" vertex="1">
          <mxGeometry x="915" y="62" width="180" height="158" as="geometry" />
        </mxCell>
        <mxCell id="pNir1XspZ6FCPG3i-Ryd-33" value="Pre-Deploy-Tests" style="shape=rect;strokeColor=none;fillColor=#008cff;strokeWidth=1;dashed=0;rounded=1;arcSize=20;fontColor=#ffffff;fontSize=17;spacing=2;spacingTop=-2;align=left;autosize=1;spacingLeft=4;resizeWidth=0;resizeHeight=0;perimeter=none;html=1;whiteSpace=wrap;" parent="pNir1XspZ6FCPG3i-Ryd-32" vertex="1">
          <mxGeometry x="5" y="1" width="150" height="28" as="geometry" />
        </mxCell>
        <mxCell id="pNir1XspZ6FCPG3i-Ryd-34" value="AWS CodeBuild" style="sketch=0;outlineConnect=0;fontColor=#232F3E;gradientColor=none;strokeColor=#ffffff;fillColor=#232F3E;dashed=0;verticalLabelPosition=middle;verticalAlign=bottom;align=center;html=1;whiteSpace=wrap;fontSize=10;fontStyle=1;spacing=3;shape=mxgraph.aws4.productIcon;prIcon=mxgraph.aws4.codebuild;" parent="pNir1XspZ6FCPG3i-Ryd-32" vertex="1">
          <mxGeometry x="35" y="46" width="80" height="110" as="geometry" />
        </mxCell>
        <mxCell id="pNir1XspZ6FCPG3i-Ryd-67" style="edgeStyle=orthogonalEdgeStyle;rounded=0;orthogonalLoop=1;jettySize=auto;html=1;" parent="pNir1XspZ6FCPG3i-Ryd-18" source="pNir1XspZ6FCPG3i-Ryd-35" target="pNir1XspZ6FCPG3i-Ryd-38" edge="1">
          <mxGeometry relative="1" as="geometry" />
        </mxCell>
        <mxCell id="pNir1XspZ6FCPG3i-Ryd-35" value="" style="shape=mxgraph.mockup.containers.marginRect;rectMarginTop=10;strokeColor=#666666;strokeWidth=1;dashed=0;rounded=1;arcSize=5;recursiveResize=0;html=1;whiteSpace=wrap;" parent="pNir1XspZ6FCPG3i-Ryd-18" vertex="1">
          <mxGeometry x="1145" y="62" width="195" height="158" as="geometry" />
        </mxCell>
        <mxCell id="pNir1XspZ6FCPG3i-Ryd-36" value="Launch-Apply-SemVer" style="shape=rect;strokeColor=none;fillColor=#008cff;strokeWidth=1;dashed=0;rounded=1;arcSize=20;fontColor=#ffffff;fontSize=17;spacing=2;spacingTop=-2;align=left;autosize=1;spacingLeft=4;resizeWidth=0;resizeHeight=0;perimeter=none;html=1;whiteSpace=wrap;" parent="pNir1XspZ6FCPG3i-Ryd-35" vertex="1">
          <mxGeometry x="5" y="1" width="190" height="28" as="geometry" />
        </mxCell>
        <mxCell id="pNir1XspZ6FCPG3i-Ryd-37" value="AWS CodeBuild" style="sketch=0;outlineConnect=0;fontColor=#232F3E;gradientColor=none;strokeColor=#ffffff;fillColor=#232F3E;dashed=0;verticalLabelPosition=middle;verticalAlign=bottom;align=center;html=1;whiteSpace=wrap;fontSize=10;fontStyle=1;spacing=3;shape=mxgraph.aws4.productIcon;prIcon=mxgraph.aws4.codebuild;" parent="pNir1XspZ6FCPG3i-Ryd-35" vertex="1">
          <mxGeometry x="35" y="46" width="80" height="110" as="geometry" />
        </mxCell>
        <mxCell id="pNir1XspZ6FCPG3i-Ryd-38" value="" style="shape=mxgraph.mockup.containers.marginRect;rectMarginTop=10;strokeColor=#666666;strokeWidth=1;dashed=0;rounded=1;arcSize=5;recursiveResize=0;html=1;whiteSpace=wrap;" parent="pNir1XspZ6FCPG3i-Ryd-18" vertex="1">
          <mxGeometry x="1375" y="62" width="175" height="158" as="geometry" />
        </mxCell>
        <mxCell id="pNir1XspZ6FCPG3i-Ryd-39" value="Trigger-Env" style="shape=rect;strokeColor=none;fillColor=#008cff;strokeWidth=1;dashed=0;rounded=1;arcSize=20;fontColor=#ffffff;fontSize=17;spacing=2;spacingTop=-2;align=left;autosize=1;spacingLeft=4;resizeWidth=0;resizeHeight=0;perimeter=none;html=1;whiteSpace=wrap;" parent="pNir1XspZ6FCPG3i-Ryd-38" vertex="1">
          <mxGeometry x="5" y="1" width="108" height="28" as="geometry" />
        </mxCell>
        <mxCell id="pNir1XspZ6FCPG3i-Ryd-40" value="AWS CodeBuild" style="sketch=0;outlineConnect=0;fontColor=#232F3E;gradientColor=none;strokeColor=#ffffff;fillColor=#232F3E;dashed=0;verticalLabelPosition=middle;verticalAlign=bottom;align=center;html=1;whiteSpace=wrap;fontSize=10;fontStyle=1;spacing=3;shape=mxgraph.aws4.productIcon;prIcon=mxgraph.aws4.codebuild;" parent="pNir1XspZ6FCPG3i-Ryd-38" vertex="1">
          <mxGeometry x="35" y="46" width="80" height="110" as="geometry" />
        </mxCell>
        <mxCell id="pNir1XspZ6FCPG3i-Ryd-72" value="" style="shape=mxgraph.mockup.containers.marginRect;rectMarginTop=10;strokeColor=#666666;strokeWidth=1;dashed=0;rounded=1;arcSize=5;recursiveResize=0;html=1;whiteSpace=wrap;" parent="1" vertex="1">
          <mxGeometry x="440" y="186" width="1588" height="300" as="geometry" />
        </mxCell>
        <mxCell id="pNir1XspZ6FCPG3i-Ryd-73" value="PR-Event" style="shape=rect;strokeColor=none;fillColor=#008cff;strokeWidth=1;dashed=0;rounded=1;arcSize=20;fontColor=#ffffff;fontSize=17;spacing=2;spacingTop=-2;align=left;autosize=1;spacingLeft=4;resizeWidth=0;resizeHeight=0;perimeter=none;html=1;whiteSpace=wrap;" parent="pNir1XspZ6FCPG3i-Ryd-72" vertex="1">
          <mxGeometry x="5" width="100" height="30" as="geometry" />
        </mxCell>
        <mxCell id="pNir1XspZ6FCPG3i-Ryd-74" style="edgeStyle=orthogonalEdgeStyle;rounded=0;orthogonalLoop=1;jettySize=auto;html=1;" parent="pNir1XspZ6FCPG3i-Ryd-72" source="pNir1XspZ6FCPG3i-Ryd-75" target="pNir1XspZ6FCPG3i-Ryd-79" edge="1">
          <mxGeometry relative="1" as="geometry" />
        </mxCell>
        <mxCell id="pNir1XspZ6FCPG3i-Ryd-75" value="" style="shape=mxgraph.mockup.containers.marginRect;rectMarginTop=10;strokeColor=#666666;strokeWidth=1;dashed=0;rounded=1;arcSize=5;recursiveResize=0;html=1;whiteSpace=wrap;" parent="pNir1XspZ6FCPG3i-Ryd-72" vertex="1">
          <mxGeometry x="30" y="72" width="150" height="138" as="geometry" />
        </mxCell>
        <mxCell id="pNir1XspZ6FCPG3i-Ryd-76" value="Source" style="shape=rect;strokeColor=none;fillColor=#008cff;strokeWidth=1;dashed=0;rounded=1;arcSize=20;fontColor=#ffffff;fontSize=17;spacing=2;spacingTop=-2;align=left;autosize=1;spacingLeft=4;resizeWidth=0;resizeHeight=0;perimeter=none;html=1;whiteSpace=wrap;" parent="pNir1XspZ6FCPG3i-Ryd-75" vertex="1">
          <mxGeometry x="5" width="80" height="30" as="geometry" />
        </mxCell>
        <mxCell id="pNir1XspZ6FCPG3i-Ryd-77" value="Amazon S3" style="sketch=0;outlineConnect=0;fontColor=#232F3E;gradientColor=none;strokeColor=#ffffff;fillColor=#232F3E;dashed=0;verticalLabelPosition=middle;verticalAlign=bottom;align=center;html=1;whiteSpace=wrap;fontSize=10;fontStyle=1;spacing=3;shape=mxgraph.aws4.productIcon;prIcon=mxgraph.aws4.s3;" parent="pNir1XspZ6FCPG3i-Ryd-75" vertex="1">
          <mxGeometry x="35" y="36" width="80" height="100" as="geometry" />
        </mxCell>
        <mxCell id="pNir1XspZ6FCPG3i-Ryd-78" style="edgeStyle=orthogonalEdgeStyle;rounded=0;orthogonalLoop=1;jettySize=auto;html=1;" parent="pNir1XspZ6FCPG3i-Ryd-72" source="pNir1XspZ6FCPG3i-Ryd-79" target="pNir1XspZ6FCPG3i-Ryd-83" edge="1">
          <mxGeometry relative="1" as="geometry" />
        </mxCell>
        <mxCell id="pNir1XspZ6FCPG3i-Ryd-79" value="" style="shape=mxgraph.mockup.containers.marginRect;rectMarginTop=10;strokeColor=#666666;strokeWidth=1;dashed=0;rounded=1;arcSize=5;recursiveResize=0;html=1;whiteSpace=wrap;" parent="pNir1XspZ6FCPG3i-Ryd-72" vertex="1">
          <mxGeometry x="240" y="62" width="180" height="158" as="geometry" />
        </mxCell>
        <mxCell id="pNir1XspZ6FCPG3i-Ryd-80" value="Simulate Merge" style="shape=rect;strokeColor=none;fillColor=#008cff;strokeWidth=1;dashed=0;rounded=1;arcSize=20;fontColor=#ffffff;fontSize=17;spacing=2;spacingTop=-2;align=left;autosize=1;spacingLeft=4;resizeWidth=0;resizeHeight=0;perimeter=none;html=1;whiteSpace=wrap;" parent="pNir1XspZ6FCPG3i-Ryd-79" vertex="1">
          <mxGeometry x="5" width="140" height="30" as="geometry" />
        </mxCell>
        <mxCell id="pNir1XspZ6FCPG3i-Ryd-81" value="AWS CodeBuild" style="sketch=0;outlineConnect=0;fontColor=#232F3E;gradientColor=none;strokeColor=#ffffff;fillColor=#232F3E;dashed=0;verticalLabelPosition=middle;verticalAlign=bottom;align=center;html=1;whiteSpace=wrap;fontSize=10;fontStyle=1;spacing=3;shape=mxgraph.aws4.productIcon;prIcon=mxgraph.aws4.codebuild;" parent="pNir1XspZ6FCPG3i-Ryd-79" vertex="1">
          <mxGeometry x="35" y="46" width="80" height="110" as="geometry" />
        </mxCell>
        <mxCell id="pNir1XspZ6FCPG3i-Ryd-82" style="edgeStyle=orthogonalEdgeStyle;rounded=0;orthogonalLoop=1;jettySize=auto;html=1;" parent="pNir1XspZ6FCPG3i-Ryd-72" source="pNir1XspZ6FCPG3i-Ryd-83" target="pNir1XspZ6FCPG3i-Ryd-87" edge="1">
          <mxGeometry relative="1" as="geometry" />
        </mxCell>
        <mxCell id="pNir1XspZ6FCPG3i-Ryd-83" value="" style="shape=mxgraph.mockup.containers.marginRect;rectMarginTop=10;strokeColor=#666666;strokeWidth=1;dashed=0;rounded=1;arcSize=5;recursiveResize=0;html=1;whiteSpace=wrap;" parent="pNir1XspZ6FCPG3i-Ryd-72" vertex="1">
          <mxGeometry x="470" y="62" width="205" height="158" as="geometry" />
        </mxCell>
        <mxCell id="pNir1XspZ6FCPG3i-Ryd-84" value="Launch-Predict-SemVer" style="shape=rect;strokeColor=none;fillColor=#008cff;strokeWidth=1;dashed=0;rounded=1;arcSize=20;fontColor=#ffffff;fontSize=17;spacing=2;spacingTop=-2;align=left;autosize=1;spacingLeft=4;resizeWidth=0;resizeHeight=0;perimeter=none;html=1;whiteSpace=wrap;" parent="pNir1XspZ6FCPG3i-Ryd-83" vertex="1">
          <mxGeometry x="5" y="1" width="200" height="28" as="geometry" />
        </mxCell>
        <mxCell id="pNir1XspZ6FCPG3i-Ryd-85" value="AWS CodeBuild" style="sketch=0;outlineConnect=0;fontColor=#232F3E;gradientColor=none;strokeColor=#ffffff;fillColor=#232F3E;dashed=0;verticalLabelPosition=middle;verticalAlign=bottom;align=center;html=1;whiteSpace=wrap;fontSize=10;fontStyle=1;spacing=3;shape=mxgraph.aws4.productIcon;prIcon=mxgraph.aws4.codebuild;" parent="pNir1XspZ6FCPG3i-Ryd-83" vertex="1">
          <mxGeometry x="35" y="46" width="80" height="110" as="geometry" />
        </mxCell>
        <mxCell id="pNir1XspZ6FCPG3i-Ryd-86" style="edgeStyle=orthogonalEdgeStyle;rounded=0;orthogonalLoop=1;jettySize=auto;html=1;" parent="pNir1XspZ6FCPG3i-Ryd-72" source="pNir1XspZ6FCPG3i-Ryd-87" target="pNir1XspZ6FCPG3i-Ryd-91" edge="1">
          <mxGeometry relative="1" as="geometry" />
        </mxCell>
        <mxCell id="pNir1XspZ6FCPG3i-Ryd-87" value="" style="shape=mxgraph.mockup.containers.marginRect;rectMarginTop=10;strokeColor=#666666;strokeWidth=1;dashed=0;rounded=1;arcSize=5;recursiveResize=0;html=1;whiteSpace=wrap;" parent="pNir1XspZ6FCPG3i-Ryd-72" vertex="1">
          <mxGeometry x="700" y="62" width="180" height="158" as="geometry" />
        </mxCell>
        <mxCell id="pNir1XspZ6FCPG3i-Ryd-88" value="TG-Plan-Service" style="shape=rect;strokeColor=none;fillColor=#008cff;strokeWidth=1;dashed=0;rounded=1;arcSize=20;fontColor=#ffffff;fontSize=17;spacing=2;spacingTop=-2;align=left;autosize=1;spacingLeft=4;resizeWidth=0;resizeHeight=0;perimeter=none;html=1;whiteSpace=wrap;" parent="pNir1XspZ6FCPG3i-Ryd-87" vertex="1">
          <mxGeometry x="5" y="1" width="146" height="28" as="geometry" />
        </mxCell>
        <mxCell id="pNir1XspZ6FCPG3i-Ryd-89" value="AWS CodeBuild" style="sketch=0;outlineConnect=0;fontColor=#232F3E;gradientColor=none;strokeColor=#ffffff;fillColor=#232F3E;dashed=0;verticalLabelPosition=middle;verticalAlign=bottom;align=center;html=1;whiteSpace=wrap;fontSize=10;fontStyle=1;spacing=3;shape=mxgraph.aws4.productIcon;prIcon=mxgraph.aws4.codebuild;" parent="pNir1XspZ6FCPG3i-Ryd-87" vertex="1">
          <mxGeometry x="35" y="46" width="80" height="110" as="geometry" />
        </mxCell>
        <mxCell id="pNir1XspZ6FCPG3i-Ryd-90" style="edgeStyle=orthogonalEdgeStyle;rounded=0;orthogonalLoop=1;jettySize=auto;html=1;" parent="pNir1XspZ6FCPG3i-Ryd-72" source="pNir1XspZ6FCPG3i-Ryd-91" edge="1">
          <mxGeometry relative="1" as="geometry">
            <mxPoint x="1145" y="141" as="targetPoint" />
          </mxGeometry>
        </mxCell>
        <mxCell id="pNir1XspZ6FCPG3i-Ryd-91" value="" style="shape=mxgraph.mockup.containers.marginRect;rectMarginTop=10;strokeColor=#666666;strokeWidth=1;dashed=0;rounded=1;arcSize=5;recursiveResize=0;html=1;whiteSpace=wrap;" parent="pNir1XspZ6FCPG3i-Ryd-72" vertex="1">
          <mxGeometry x="915" y="62" width="201" height="158" as="geometry" />
        </mxCell>
        <mxCell id="pNir1XspZ6FCPG3i-Ryd-92" value="TG-Plan-Git-Webhooks" style="shape=rect;strokeColor=none;fillColor=#008cff;strokeWidth=1;dashed=0;rounded=1;arcSize=20;fontColor=#ffffff;fontSize=17;spacing=2;spacingTop=-2;align=left;autosize=1;spacingLeft=4;resizeWidth=0;resizeHeight=0;perimeter=none;html=1;whiteSpace=wrap;" parent="pNir1XspZ6FCPG3i-Ryd-91" vertex="1">
          <mxGeometry x="5" y="1" width="196" height="28" as="geometry" />
        </mxCell>
        <mxCell id="pNir1XspZ6FCPG3i-Ryd-93" value="AWS CodeBuild" style="sketch=0;outlineConnect=0;fontColor=#232F3E;gradientColor=none;strokeColor=#ffffff;fillColor=#232F3E;dashed=0;verticalLabelPosition=middle;verticalAlign=bottom;align=center;html=1;whiteSpace=wrap;fontSize=10;fontStyle=1;spacing=3;shape=mxgraph.aws4.productIcon;prIcon=mxgraph.aws4.codebuild;" parent="pNir1XspZ6FCPG3i-Ryd-91" vertex="1">
          <mxGeometry x="35" y="48" width="80" height="110" as="geometry" />
        </mxCell>
        <mxCell id="pNir1XspZ6FCPG3i-Ryd-98" style="edgeStyle=orthogonalEdgeStyle;rounded=0;orthogonalLoop=1;jettySize=auto;html=1;" parent="pNir1XspZ6FCPG3i-Ryd-72" source="pNir1XspZ6FCPG3i-Ryd-99" target="pNir1XspZ6FCPG3i-Ryd-103" edge="1">
          <mxGeometry relative="1" as="geometry" />
        </mxCell>
        <mxCell id="pNir1XspZ6FCPG3i-Ryd-99" value="" style="shape=mxgraph.mockup.containers.marginRect;rectMarginTop=10;strokeColor=#666666;strokeWidth=1;dashed=0;rounded=1;arcSize=5;recursiveResize=0;html=1;whiteSpace=wrap;" parent="pNir1XspZ6FCPG3i-Ryd-72" vertex="1">
          <mxGeometry x="1145" y="62" width="175" height="158" as="geometry" />
        </mxCell>
        <mxCell id="pNir1XspZ6FCPG3i-Ryd-100" value="TG-Plan-Pipelines" style="shape=rect;strokeColor=none;fillColor=#008cff;strokeWidth=1;dashed=0;rounded=1;arcSize=20;fontColor=#ffffff;fontSize=17;spacing=2;spacingTop=-2;align=left;autosize=1;spacingLeft=4;resizeWidth=0;resizeHeight=0;perimeter=none;html=1;whiteSpace=wrap;" parent="pNir1XspZ6FCPG3i-Ryd-99" vertex="1">
          <mxGeometry x="5" y="1" width="158" height="28" as="geometry" />
        </mxCell>
        <mxCell id="pNir1XspZ6FCPG3i-Ryd-101" value="AWS CodeBuild" style="sketch=0;outlineConnect=0;fontColor=#232F3E;gradientColor=none;strokeColor=#ffffff;fillColor=#232F3E;dashed=0;verticalLabelPosition=middle;verticalAlign=bottom;align=center;html=1;whiteSpace=wrap;fontSize=10;fontStyle=1;spacing=3;shape=mxgraph.aws4.productIcon;prIcon=mxgraph.aws4.codebuild;" parent="pNir1XspZ6FCPG3i-Ryd-99" vertex="1">
          <mxGeometry x="35" y="46" width="80" height="110" as="geometry" />
        </mxCell>
        <mxCell id="pNir1XspZ6FCPG3i-Ryd-103" value="" style="shape=mxgraph.mockup.containers.marginRect;rectMarginTop=10;strokeColor=#666666;strokeWidth=1;dashed=0;rounded=1;arcSize=5;recursiveResize=0;html=1;whiteSpace=wrap;" parent="pNir1XspZ6FCPG3i-Ryd-72" vertex="1">
          <mxGeometry x="1370" y="62" width="180" height="158" as="geometry" />
        </mxCell>
        <mxCell id="pNir1XspZ6FCPG3i-Ryd-104" value="Pre-Deploy-Tests" style="shape=rect;strokeColor=none;fillColor=#008cff;strokeWidth=1;dashed=0;rounded=1;arcSize=20;fontColor=#ffffff;fontSize=17;spacing=2;spacingTop=-2;align=left;autosize=1;spacingLeft=4;resizeWidth=0;resizeHeight=0;perimeter=none;html=1;whiteSpace=wrap;" parent="pNir1XspZ6FCPG3i-Ryd-103" vertex="1">
          <mxGeometry x="5" y="1" width="150" height="28" as="geometry" />
        </mxCell>
        <mxCell id="pNir1XspZ6FCPG3i-Ryd-105" value="AWS CodeBuild" style="sketch=0;outlineConnect=0;fontColor=#232F3E;gradientColor=none;strokeColor=#ffffff;fillColor=#232F3E;dashed=0;verticalLabelPosition=middle;verticalAlign=bottom;align=center;html=1;whiteSpace=wrap;fontSize=10;fontStyle=1;spacing=3;shape=mxgraph.aws4.productIcon;prIcon=mxgraph.aws4.codebuild;" parent="pNir1XspZ6FCPG3i-Ryd-103" vertex="1">
          <mxGeometry x="35" y="48" width="80" height="110" as="geometry" />
        </mxCell>
        <mxCell id="pNir1XspZ6FCPG3i-Ryd-117" value="" style="shape=mxgraph.mockup.containers.marginRect;rectMarginTop=10;strokeColor=#666666;strokeWidth=1;dashed=0;rounded=1;arcSize=5;recursiveResize=0;html=1;whiteSpace=wrap;" parent="1" vertex="1">
          <mxGeometry x="2170" y="560" width="1170" height="300" as="geometry" />
        </mxCell>
        <mxCell id="pNir1XspZ6FCPG3i-Ryd-118" value="Internals" style="shape=rect;strokeColor=none;fillColor=#008cff;strokeWidth=1;dashed=0;rounded=1;arcSize=20;fontColor=#ffffff;fontSize=17;spacing=2;spacingTop=-2;align=left;autosize=1;spacingLeft=4;resizeWidth=0;resizeHeight=0;perimeter=none;html=1;whiteSpace=wrap;" parent="pNir1XspZ6FCPG3i-Ryd-117" vertex="1">
          <mxGeometry x="5" width="95" height="30" as="geometry" />
        </mxCell>
        <mxCell id="pNir1XspZ6FCPG3i-Ryd-167" style="edgeStyle=orthogonalEdgeStyle;rounded=0;orthogonalLoop=1;jettySize=auto;html=1;" parent="pNir1XspZ6FCPG3i-Ryd-117" source="pNir1XspZ6FCPG3i-Ryd-120" target="pNir1XspZ6FCPG3i-Ryd-136" edge="1">
          <mxGeometry relative="1" as="geometry" />
        </mxCell>
        <mxCell id="pNir1XspZ6FCPG3i-Ryd-120" value="" style="shape=mxgraph.mockup.containers.marginRect;rectMarginTop=10;strokeColor=#666666;strokeWidth=1;dashed=0;rounded=1;arcSize=5;recursiveResize=0;html=1;whiteSpace=wrap;" parent="pNir1XspZ6FCPG3i-Ryd-117" vertex="1">
          <mxGeometry x="30" y="72" width="150" height="138" as="geometry" />
        </mxCell>
        <mxCell id="pNir1XspZ6FCPG3i-Ryd-121" value="Source" style="shape=rect;strokeColor=none;fillColor=#008cff;strokeWidth=1;dashed=0;rounded=1;arcSize=20;fontColor=#ffffff;fontSize=17;spacing=2;spacingTop=-2;align=left;autosize=1;spacingLeft=4;resizeWidth=0;resizeHeight=0;perimeter=none;html=1;whiteSpace=wrap;" parent="pNir1XspZ6FCPG3i-Ryd-120" vertex="1">
          <mxGeometry x="5" width="80" height="30" as="geometry" />
        </mxCell>
        <mxCell id="pNir1XspZ6FCPG3i-Ryd-122" value="Amazon S3" style="sketch=0;outlineConnect=0;fontColor=#232F3E;gradientColor=none;strokeColor=#ffffff;fillColor=#232F3E;dashed=0;verticalLabelPosition=middle;verticalAlign=bottom;align=center;html=1;whiteSpace=wrap;fontSize=10;fontStyle=1;spacing=3;shape=mxgraph.aws4.productIcon;prIcon=mxgraph.aws4.s3;" parent="pNir1XspZ6FCPG3i-Ryd-120" vertex="1">
          <mxGeometry x="35" y="38" width="80" height="100" as="geometry" />
        </mxCell>
        <mxCell id="pNir1XspZ6FCPG3i-Ryd-163" style="edgeStyle=orthogonalEdgeStyle;rounded=0;orthogonalLoop=1;jettySize=auto;html=1;" parent="pNir1XspZ6FCPG3i-Ryd-117" source="pNir1XspZ6FCPG3i-Ryd-136" target="pNir1XspZ6FCPG3i-Ryd-148" edge="1">
          <mxGeometry relative="1" as="geometry" />
        </mxCell>
        <mxCell id="pNir1XspZ6FCPG3i-Ryd-136" value="" style="shape=mxgraph.mockup.containers.marginRect;rectMarginTop=10;strokeColor=#666666;strokeWidth=1;dashed=0;rounded=1;arcSize=5;recursiveResize=0;html=1;whiteSpace=wrap;" parent="pNir1XspZ6FCPG3i-Ryd-117" vertex="1">
          <mxGeometry x="240" y="62" width="205" height="158" as="geometry" />
        </mxCell>
        <mxCell id="pNir1XspZ6FCPG3i-Ryd-137" value="TG-Plan-Git-Webhooks" style="shape=rect;strokeColor=none;fillColor=#008cff;strokeWidth=1;dashed=0;rounded=1;arcSize=20;fontColor=#ffffff;fontSize=17;spacing=2;spacingTop=-2;align=left;autosize=1;spacingLeft=4;resizeWidth=0;resizeHeight=0;perimeter=none;html=1;whiteSpace=wrap;" parent="pNir1XspZ6FCPG3i-Ryd-136" vertex="1">
          <mxGeometry x="5" width="200" height="30" as="geometry" />
        </mxCell>
        <mxCell id="pNir1XspZ6FCPG3i-Ryd-138" value="AWS CodeBuild" style="sketch=0;outlineConnect=0;fontColor=#232F3E;gradientColor=none;strokeColor=#ffffff;fillColor=#232F3E;dashed=0;verticalLabelPosition=middle;verticalAlign=bottom;align=center;html=1;whiteSpace=wrap;fontSize=10;fontStyle=1;spacing=3;shape=mxgraph.aws4.productIcon;prIcon=mxgraph.aws4.codebuild;" parent="pNir1XspZ6FCPG3i-Ryd-136" vertex="1">
          <mxGeometry x="35" y="46" width="80" height="110" as="geometry" />
        </mxCell>
        <mxCell id="pNir1XspZ6FCPG3i-Ryd-147" style="edgeStyle=orthogonalEdgeStyle;rounded=0;orthogonalLoop=1;jettySize=auto;html=1;" parent="pNir1XspZ6FCPG3i-Ryd-117" source="pNir1XspZ6FCPG3i-Ryd-148" target="pNir1XspZ6FCPG3i-Ryd-152" edge="1">
          <mxGeometry relative="1" as="geometry" />
        </mxCell>
        <mxCell id="pNir1XspZ6FCPG3i-Ryd-148" value="" style="shape=mxgraph.mockup.containers.marginRect;rectMarginTop=10;strokeColor=#666666;strokeWidth=1;dashed=0;rounded=1;arcSize=5;recursiveResize=0;html=1;whiteSpace=wrap;" parent="pNir1XspZ6FCPG3i-Ryd-117" vertex="1">
          <mxGeometry x="475" y="62" width="180" height="158" as="geometry" />
        </mxCell>
        <mxCell id="pNir1XspZ6FCPG3i-Ryd-149" value="TG-Plan-Pipelines" style="shape=rect;strokeColor=none;fillColor=#008cff;strokeWidth=1;dashed=0;rounded=1;arcSize=20;fontColor=#ffffff;fontSize=17;spacing=2;spacingTop=-2;align=left;autosize=1;spacingLeft=4;resizeWidth=0;resizeHeight=0;perimeter=none;html=1;whiteSpace=wrap;" parent="pNir1XspZ6FCPG3i-Ryd-148" vertex="1">
          <mxGeometry x="5" width="160" height="30" as="geometry" />
        </mxCell>
        <mxCell id="pNir1XspZ6FCPG3i-Ryd-150" value="AWS CodeBuild" style="sketch=0;outlineConnect=0;fontColor=#232F3E;gradientColor=none;strokeColor=#ffffff;fillColor=#232F3E;dashed=0;verticalLabelPosition=middle;verticalAlign=bottom;align=center;html=1;whiteSpace=wrap;fontSize=10;fontStyle=1;spacing=3;shape=mxgraph.aws4.productIcon;prIcon=mxgraph.aws4.codebuild;" parent="pNir1XspZ6FCPG3i-Ryd-148" vertex="1">
          <mxGeometry x="35" y="46" width="80" height="110" as="geometry" />
        </mxCell>
        <mxCell id="pNir1XspZ6FCPG3i-Ryd-151" style="edgeStyle=orthogonalEdgeStyle;rounded=0;orthogonalLoop=1;jettySize=auto;html=1;" parent="pNir1XspZ6FCPG3i-Ryd-117" source="pNir1XspZ6FCPG3i-Ryd-152" target="pNir1XspZ6FCPG3i-Ryd-156" edge="1">
          <mxGeometry relative="1" as="geometry" />
        </mxCell>
        <mxCell id="pNir1XspZ6FCPG3i-Ryd-152" value="" style="shape=mxgraph.mockup.containers.marginRect;rectMarginTop=10;strokeColor=#666666;strokeWidth=1;dashed=0;rounded=1;arcSize=5;recursiveResize=0;html=1;whiteSpace=wrap;" parent="pNir1XspZ6FCPG3i-Ryd-117" vertex="1">
          <mxGeometry x="705" y="62" width="195" height="158" as="geometry" />
        </mxCell>
        <mxCell id="pNir1XspZ6FCPG3i-Ryd-153" value="Deploy-Git-Webhooks" style="shape=rect;strokeColor=none;fillColor=#008cff;strokeWidth=1;dashed=0;rounded=1;arcSize=20;fontColor=#ffffff;fontSize=17;spacing=2;spacingTop=-2;align=left;autosize=1;spacingLeft=4;resizeWidth=0;resizeHeight=0;perimeter=none;html=1;whiteSpace=wrap;" parent="pNir1XspZ6FCPG3i-Ryd-152" vertex="1">
          <mxGeometry x="5" width="190" height="30" as="geometry" />
        </mxCell>
        <mxCell id="pNir1XspZ6FCPG3i-Ryd-154" value="AWS CodeBuild" style="sketch=0;outlineConnect=0;fontColor=#232F3E;gradientColor=none;strokeColor=#ffffff;fillColor=#232F3E;dashed=0;verticalLabelPosition=middle;verticalAlign=bottom;align=center;html=1;whiteSpace=wrap;fontSize=10;fontStyle=1;spacing=3;shape=mxgraph.aws4.productIcon;prIcon=mxgraph.aws4.codebuild;" parent="pNir1XspZ6FCPG3i-Ryd-152" vertex="1">
          <mxGeometry x="35" y="46" width="80" height="110" as="geometry" />
        </mxCell>
        <mxCell id="pNir1XspZ6FCPG3i-Ryd-156" value="" style="shape=mxgraph.mockup.containers.marginRect;rectMarginTop=10;strokeColor=#666666;strokeWidth=1;dashed=0;rounded=1;arcSize=5;recursiveResize=0;html=1;whiteSpace=wrap;" parent="pNir1XspZ6FCPG3i-Ryd-117" vertex="1">
          <mxGeometry x="935" y="62" width="180" height="158" as="geometry" />
        </mxCell>
        <mxCell id="pNir1XspZ6FCPG3i-Ryd-157" value="Deploy-Pipelines" style="shape=rect;strokeColor=none;fillColor=#008cff;strokeWidth=1;dashed=0;rounded=1;arcSize=20;fontColor=#ffffff;fontSize=17;spacing=2;spacingTop=-2;align=left;autosize=1;spacingLeft=4;resizeWidth=0;resizeHeight=0;perimeter=none;html=1;whiteSpace=wrap;" parent="pNir1XspZ6FCPG3i-Ryd-156" vertex="1">
          <mxGeometry x="5" width="150" height="30" as="geometry" />
        </mxCell>
        <mxCell id="pNir1XspZ6FCPG3i-Ryd-158" value="AWS CodeBuild" style="sketch=0;outlineConnect=0;fontColor=#232F3E;gradientColor=none;strokeColor=#ffffff;fillColor=#232F3E;dashed=0;verticalLabelPosition=middle;verticalAlign=bottom;align=center;html=1;whiteSpace=wrap;fontSize=10;fontStyle=1;spacing=3;shape=mxgraph.aws4.productIcon;prIcon=mxgraph.aws4.codebuild;" parent="pNir1XspZ6FCPG3i-Ryd-156" vertex="1">
          <mxGeometry x="35" y="46" width="80" height="110" as="geometry" />
        </mxCell>
        <mxCell id="pNir1XspZ6FCPG3i-Ryd-189" value="" style="shape=mxgraph.mockup.containers.marginRect;rectMarginTop=10;strokeColor=#666666;strokeWidth=1;dashed=0;rounded=1;arcSize=5;recursiveResize=0;html=1;whiteSpace=wrap;" parent="1" vertex="1">
          <mxGeometry x="140" y="949" width="1130" height="300" as="geometry" />
        </mxCell>
        <mxCell id="pNir1XspZ6FCPG3i-Ryd-190" value="QA" style="shape=rect;strokeColor=none;fillColor=#008cff;strokeWidth=1;dashed=0;rounded=1;arcSize=20;fontColor=#ffffff;fontSize=17;spacing=2;spacingTop=-2;align=left;autosize=1;spacingLeft=4;resizeWidth=0;resizeHeight=0;perimeter=none;html=1;whiteSpace=wrap;" parent="pNir1XspZ6FCPG3i-Ryd-189" vertex="1">
          <mxGeometry x="5" width="50" height="30" as="geometry" />
        </mxCell>
        <mxCell id="pNir1XspZ6FCPG3i-Ryd-192" value="" style="shape=mxgraph.mockup.containers.marginRect;rectMarginTop=10;strokeColor=#666666;strokeWidth=1;dashed=0;rounded=1;arcSize=5;recursiveResize=0;html=1;whiteSpace=wrap;" parent="pNir1XspZ6FCPG3i-Ryd-189" vertex="1">
          <mxGeometry x="30" y="72" width="150" height="138" as="geometry" />
        </mxCell>
        <mxCell id="pNir1XspZ6FCPG3i-Ryd-193" value="Source" style="shape=rect;strokeColor=none;fillColor=#008cff;strokeWidth=1;dashed=0;rounded=1;arcSize=20;fontColor=#ffffff;fontSize=17;spacing=2;spacingTop=-2;align=left;autosize=1;spacingLeft=4;resizeWidth=0;resizeHeight=0;perimeter=none;html=1;whiteSpace=wrap;" parent="pNir1XspZ6FCPG3i-Ryd-192" vertex="1">
          <mxGeometry x="5" width="80" height="30" as="geometry" />
        </mxCell>
        <mxCell id="pNir1XspZ6FCPG3i-Ryd-194" value="Amazon S3" style="sketch=0;outlineConnect=0;fontColor=#232F3E;gradientColor=none;strokeColor=#ffffff;fillColor=#232F3E;dashed=0;verticalLabelPosition=middle;verticalAlign=bottom;align=center;html=1;whiteSpace=wrap;fontSize=10;fontStyle=1;spacing=3;shape=mxgraph.aws4.productIcon;prIcon=mxgraph.aws4.s3;" parent="pNir1XspZ6FCPG3i-Ryd-192" vertex="1">
          <mxGeometry x="35" y="38" width="80" height="100" as="geometry" />
        </mxCell>
        <mxCell id="pNir1XspZ6FCPG3i-Ryd-195" style="edgeStyle=orthogonalEdgeStyle;rounded=0;orthogonalLoop=1;jettySize=auto;html=1;" parent="pNir1XspZ6FCPG3i-Ryd-189" edge="1">
          <mxGeometry relative="1" as="geometry">
            <mxPoint x="180" y="136" as="sourcePoint" />
            <mxPoint x="230" y="136" as="targetPoint" />
          </mxGeometry>
        </mxCell>
        <mxCell id="pNir1XspZ6FCPG3i-Ryd-203" style="edgeStyle=orthogonalEdgeStyle;rounded=0;orthogonalLoop=1;jettySize=auto;html=1;" parent="pNir1XspZ6FCPG3i-Ryd-189" source="pNir1XspZ6FCPG3i-Ryd-204" edge="1">
          <mxGeometry relative="1" as="geometry">
            <mxPoint x="445" y="137.5" as="targetPoint" />
          </mxGeometry>
        </mxCell>
        <mxCell id="pNir1XspZ6FCPG3i-Ryd-204" value="" style="shape=mxgraph.mockup.containers.marginRect;rectMarginTop=10;strokeColor=#666666;strokeWidth=1;dashed=0;rounded=1;arcSize=5;recursiveResize=0;html=1;whiteSpace=wrap;" parent="pNir1XspZ6FCPG3i-Ryd-189" vertex="1">
          <mxGeometry x="230" y="58.5" width="180" height="158" as="geometry" />
        </mxCell>
        <mxCell id="pNir1XspZ6FCPG3i-Ryd-205" value="Deployment" style="shape=rect;strokeColor=none;fillColor=#008cff;strokeWidth=1;dashed=0;rounded=1;arcSize=20;fontColor=#ffffff;fontSize=17;spacing=2;spacingTop=-2;align=left;autosize=1;spacingLeft=4;resizeWidth=0;resizeHeight=0;perimeter=none;html=1;whiteSpace=wrap;" parent="pNir1XspZ6FCPG3i-Ryd-204" vertex="1">
          <mxGeometry x="5" width="120" height="30" as="geometry" />
        </mxCell>
        <mxCell id="pNir1XspZ6FCPG3i-Ryd-206" value="AWS CodeBuild" style="sketch=0;outlineConnect=0;fontColor=#232F3E;gradientColor=none;strokeColor=#ffffff;fillColor=#232F3E;dashed=0;verticalLabelPosition=middle;verticalAlign=bottom;align=center;html=1;whiteSpace=wrap;fontSize=10;fontStyle=1;spacing=3;shape=mxgraph.aws4.productIcon;prIcon=mxgraph.aws4.codebuild;" parent="pNir1XspZ6FCPG3i-Ryd-204" vertex="1">
          <mxGeometry x="35" y="46" width="80" height="110" as="geometry" />
        </mxCell>
        <mxCell id="pNir1XspZ6FCPG3i-Ryd-211" style="edgeStyle=orthogonalEdgeStyle;rounded=0;orthogonalLoop=1;jettySize=auto;html=1;" parent="pNir1XspZ6FCPG3i-Ryd-189" source="pNir1XspZ6FCPG3i-Ryd-212" target="pNir1XspZ6FCPG3i-Ryd-216" edge="1">
          <mxGeometry relative="1" as="geometry" />
        </mxCell>
        <mxCell id="pNir1XspZ6FCPG3i-Ryd-212" value="" style="shape=mxgraph.mockup.containers.marginRect;rectMarginTop=10;strokeColor=#666666;strokeWidth=1;dashed=0;rounded=1;arcSize=5;recursiveResize=0;html=1;whiteSpace=wrap;" parent="pNir1XspZ6FCPG3i-Ryd-189" vertex="1">
          <mxGeometry x="450" y="63.5" width="195" height="158" as="geometry" />
        </mxCell>
        <mxCell id="pNir1XspZ6FCPG3i-Ryd-213" value="Integration-Tests" style="shape=rect;strokeColor=none;fillColor=#008cff;strokeWidth=1;dashed=0;rounded=1;arcSize=20;fontColor=#ffffff;fontSize=17;spacing=2;spacingTop=-2;align=left;autosize=1;spacingLeft=4;resizeWidth=0;resizeHeight=0;perimeter=none;html=1;whiteSpace=wrap;" parent="pNir1XspZ6FCPG3i-Ryd-212" vertex="1">
          <mxGeometry x="5" width="150" height="30" as="geometry" />
        </mxCell>
        <mxCell id="pNir1XspZ6FCPG3i-Ryd-214" value="AWS CodeBuild" style="sketch=0;outlineConnect=0;fontColor=#232F3E;gradientColor=none;strokeColor=#ffffff;fillColor=#232F3E;dashed=0;verticalLabelPosition=middle;verticalAlign=bottom;align=center;html=1;whiteSpace=wrap;fontSize=10;fontStyle=1;spacing=3;shape=mxgraph.aws4.productIcon;prIcon=mxgraph.aws4.codebuild;" parent="pNir1XspZ6FCPG3i-Ryd-212" vertex="1">
          <mxGeometry x="35" y="46" width="80" height="110" as="geometry" />
        </mxCell>
        <mxCell id="pNir1XspZ6FCPG3i-Ryd-215" style="edgeStyle=orthogonalEdgeStyle;rounded=0;orthogonalLoop=1;jettySize=auto;html=1;" parent="pNir1XspZ6FCPG3i-Ryd-189" source="pNir1XspZ6FCPG3i-Ryd-216" target="pNir1XspZ6FCPG3i-Ryd-220" edge="1">
          <mxGeometry relative="1" as="geometry" />
        </mxCell>
        <mxCell id="pNir1XspZ6FCPG3i-Ryd-216" value="" style="shape=mxgraph.mockup.containers.marginRect;rectMarginTop=10;strokeColor=#666666;strokeWidth=1;dashed=0;rounded=1;arcSize=5;recursiveResize=0;html=1;whiteSpace=wrap;" parent="pNir1XspZ6FCPG3i-Ryd-189" vertex="1">
          <mxGeometry x="680" y="63.5" width="175" height="158" as="geometry" />
        </mxCell>
        <mxCell id="pNir1XspZ6FCPG3i-Ryd-217" value="&lt;div&gt;Manual-Approval&lt;/div&gt;&lt;div&gt;To-UAT&lt;/div&gt;" style="shape=rect;strokeColor=none;fillColor=#008cff;strokeWidth=1;dashed=0;rounded=1;arcSize=20;fontColor=#ffffff;fontSize=17;spacing=2;spacingTop=-2;align=left;autosize=1;spacingLeft=4;resizeWidth=0;resizeHeight=0;perimeter=none;html=1;whiteSpace=wrap;" parent="pNir1XspZ6FCPG3i-Ryd-216" vertex="1">
          <mxGeometry x="5" y="-9" width="150" height="50" as="geometry" />
        </mxCell>
        <mxCell id="pNir1XspZ6FCPG3i-Ryd-235" value="Amazon SNS" style="sketch=0;outlineConnect=0;fontColor=#232F3E;gradientColor=none;strokeColor=#ffffff;fillColor=#232F3E;dashed=0;verticalLabelPosition=middle;verticalAlign=bottom;align=center;html=1;whiteSpace=wrap;fontSize=10;fontStyle=1;spacing=3;shape=mxgraph.aws4.productIcon;prIcon=mxgraph.aws4.sns;" parent="pNir1XspZ6FCPG3i-Ryd-216" vertex="1">
          <mxGeometry x="40" y="48" width="80" height="100" as="geometry" />
        </mxCell>
        <mxCell id="0iomguKNnYbBXgFT5OWq-3" style="edgeStyle=orthogonalEdgeStyle;rounded=0;orthogonalLoop=1;jettySize=auto;html=1;exitX=0;exitY=0;exitDx=0;exitDy=0;entryX=0.574;entryY=0.497;entryDx=0;entryDy=0;entryPerimeter=0;" parent="pNir1XspZ6FCPG3i-Ryd-216" source="pNir1XspZ6FCPG3i-Ryd-217" target="pNir1XspZ6FCPG3i-Ryd-217" edge="1">
          <mxGeometry relative="1" as="geometry" />
        </mxCell>
        <mxCell id="pNir1XspZ6FCPG3i-Ryd-220" value="" style="shape=mxgraph.mockup.containers.marginRect;rectMarginTop=10;strokeColor=#666666;strokeWidth=1;dashed=0;rounded=1;arcSize=5;recursiveResize=0;html=1;whiteSpace=wrap;" parent="pNir1XspZ6FCPG3i-Ryd-189" vertex="1">
          <mxGeometry x="905" y="63.5" width="180" height="158" as="geometry" />
        </mxCell>
        <mxCell id="pNir1XspZ6FCPG3i-Ryd-221" value="Trigger-UAT" style="shape=rect;strokeColor=none;fillColor=#008cff;strokeWidth=1;dashed=0;rounded=1;arcSize=20;fontColor=#ffffff;fontSize=17;spacing=2;spacingTop=-2;align=left;autosize=1;spacingLeft=4;resizeWidth=0;resizeHeight=0;perimeter=none;html=1;whiteSpace=wrap;" parent="pNir1XspZ6FCPG3i-Ryd-220" vertex="1">
          <mxGeometry x="5" y="1" width="120" height="30" as="geometry" />
        </mxCell>
        <mxCell id="pNir1XspZ6FCPG3i-Ryd-222" value="AWS CodeBuild" style="sketch=0;outlineConnect=0;fontColor=#232F3E;gradientColor=none;strokeColor=#ffffff;fillColor=#232F3E;dashed=0;verticalLabelPosition=middle;verticalAlign=bottom;align=center;html=1;whiteSpace=wrap;fontSize=10;fontStyle=1;spacing=3;shape=mxgraph.aws4.productIcon;prIcon=mxgraph.aws4.codebuild;" parent="pNir1XspZ6FCPG3i-Ryd-220" vertex="1">
          <mxGeometry x="35" y="46" width="80" height="110" as="geometry" />
        </mxCell>
        <mxCell id="pNir1XspZ6FCPG3i-Ryd-368" value="" style="shape=image;html=1;verticalAlign=top;verticalLabelPosition=bottom;labelBackgroundColor=#ffffff;imageAspect=0;aspect=fixed;image=https://cdn4.iconfinder.com/data/icons/web-ui-color/128/Checkmark-128.png" parent="pNir1XspZ6FCPG3i-Ryd-189" vertex="1">
          <mxGeometry x="810" y="178.5" width="63" height="63" as="geometry" />
        </mxCell>
        <mxCell id="pNir1XspZ6FCPG3i-Ryd-236" style="edgeStyle=orthogonalEdgeStyle;rounded=0;orthogonalLoop=1;jettySize=auto;html=1;strokeWidth=5;" parent="1" source="pNir1XspZ6FCPG3i-Ryd-38" target="pNir1XspZ6FCPG3i-Ryd-120" edge="1">
          <mxGeometry relative="1" as="geometry">
            <mxPoint x="2890" y="708" as="sourcePoint" />
            <mxPoint x="3280" y="705.0079999999998" as="targetPoint" />
            <Array as="points">
              <mxPoint x="2267" y="701" />
              <mxPoint x="2267" y="701" />
            </Array>
          </mxGeometry>
        </mxCell>
        <mxCell id="pNir1XspZ6FCPG3i-Ryd-249" value="" style="shape=mxgraph.mockup.containers.marginRect;rectMarginTop=10;strokeColor=#666666;strokeWidth=1;dashed=0;rounded=1;arcSize=5;recursiveResize=0;html=1;whiteSpace=wrap;" parent="1" vertex="1">
          <mxGeometry x="1360" y="948" width="1131" height="300" as="geometry" />
        </mxCell>
        <mxCell id="pNir1XspZ6FCPG3i-Ryd-250" value="&lt;div&gt;UAT&lt;/div&gt;" style="shape=rect;strokeColor=none;fillColor=#008cff;strokeWidth=1;dashed=0;rounded=1;arcSize=20;fontColor=#ffffff;fontSize=17;spacing=2;spacingTop=-2;align=left;autosize=1;spacingLeft=4;resizeWidth=0;resizeHeight=0;perimeter=none;html=1;whiteSpace=wrap;" parent="pNir1XspZ6FCPG3i-Ryd-249" vertex="1">
          <mxGeometry x="5" width="60" height="30" as="geometry" />
        </mxCell>
        <mxCell id="pNir1XspZ6FCPG3i-Ryd-251" value="" style="shape=mxgraph.mockup.containers.marginRect;rectMarginTop=10;strokeColor=#666666;strokeWidth=1;dashed=0;rounded=1;arcSize=5;recursiveResize=0;html=1;whiteSpace=wrap;" parent="pNir1XspZ6FCPG3i-Ryd-249" vertex="1">
          <mxGeometry x="30" y="72" width="150" height="138" as="geometry" />
        </mxCell>
        <mxCell id="pNir1XspZ6FCPG3i-Ryd-252" value="Source" style="shape=rect;strokeColor=none;fillColor=#008cff;strokeWidth=1;dashed=0;rounded=1;arcSize=20;fontColor=#ffffff;fontSize=17;spacing=2;spacingTop=-2;align=left;autosize=1;spacingLeft=4;resizeWidth=0;resizeHeight=0;perimeter=none;html=1;whiteSpace=wrap;" parent="pNir1XspZ6FCPG3i-Ryd-251" vertex="1">
          <mxGeometry x="5" width="80" height="30" as="geometry" />
        </mxCell>
        <mxCell id="pNir1XspZ6FCPG3i-Ryd-253" value="Amazon S3" style="sketch=0;outlineConnect=0;fontColor=#232F3E;gradientColor=none;strokeColor=#ffffff;fillColor=#232F3E;dashed=0;verticalLabelPosition=middle;verticalAlign=bottom;align=center;html=1;whiteSpace=wrap;fontSize=10;fontStyle=1;spacing=3;shape=mxgraph.aws4.productIcon;prIcon=mxgraph.aws4.s3;" parent="pNir1XspZ6FCPG3i-Ryd-251" vertex="1">
          <mxGeometry x="35" y="36" width="80" height="100" as="geometry" />
        </mxCell>
        <mxCell id="pNir1XspZ6FCPG3i-Ryd-255" style="edgeStyle=orthogonalEdgeStyle;rounded=0;orthogonalLoop=1;jettySize=auto;html=1;" parent="pNir1XspZ6FCPG3i-Ryd-249" target="pNir1XspZ6FCPG3i-Ryd-260" edge="1">
          <mxGeometry relative="1" as="geometry">
            <mxPoint x="181" y="136" as="sourcePoint" />
          </mxGeometry>
        </mxCell>
        <mxCell id="pNir1XspZ6FCPG3i-Ryd-259" style="edgeStyle=orthogonalEdgeStyle;rounded=0;orthogonalLoop=1;jettySize=auto;html=1;" parent="pNir1XspZ6FCPG3i-Ryd-249" source="pNir1XspZ6FCPG3i-Ryd-260" edge="1">
          <mxGeometry relative="1" as="geometry">
            <mxPoint x="441" y="136" as="targetPoint" />
          </mxGeometry>
        </mxCell>
        <mxCell id="pNir1XspZ6FCPG3i-Ryd-260" value="" style="shape=mxgraph.mockup.containers.marginRect;rectMarginTop=10;strokeColor=#666666;strokeWidth=1;dashed=0;rounded=1;arcSize=5;recursiveResize=0;html=1;whiteSpace=wrap;" parent="pNir1XspZ6FCPG3i-Ryd-249" vertex="1">
          <mxGeometry x="226" y="57" width="180" height="158" as="geometry" />
        </mxCell>
        <mxCell id="pNir1XspZ6FCPG3i-Ryd-261" value="Deployment" style="shape=rect;strokeColor=none;fillColor=#008cff;strokeWidth=1;dashed=0;rounded=1;arcSize=20;fontColor=#ffffff;fontSize=17;spacing=2;spacingTop=-2;align=left;autosize=1;spacingLeft=4;resizeWidth=0;resizeHeight=0;perimeter=none;html=1;whiteSpace=wrap;" parent="pNir1XspZ6FCPG3i-Ryd-260" vertex="1">
          <mxGeometry x="5" width="120" height="30" as="geometry" />
        </mxCell>
        <mxCell id="pNir1XspZ6FCPG3i-Ryd-262" value="AWS CodeBuild" style="sketch=0;outlineConnect=0;fontColor=#232F3E;gradientColor=none;strokeColor=#ffffff;fillColor=#232F3E;dashed=0;verticalLabelPosition=middle;verticalAlign=bottom;align=center;html=1;whiteSpace=wrap;fontSize=10;fontStyle=1;spacing=3;shape=mxgraph.aws4.productIcon;prIcon=mxgraph.aws4.codebuild;" parent="pNir1XspZ6FCPG3i-Ryd-260" vertex="1">
          <mxGeometry x="35" y="46" width="80" height="110" as="geometry" />
        </mxCell>
        <mxCell id="pNir1XspZ6FCPG3i-Ryd-263" style="edgeStyle=orthogonalEdgeStyle;rounded=0;orthogonalLoop=1;jettySize=auto;html=1;" parent="pNir1XspZ6FCPG3i-Ryd-249" source="pNir1XspZ6FCPG3i-Ryd-264" target="pNir1XspZ6FCPG3i-Ryd-268" edge="1">
          <mxGeometry relative="1" as="geometry" />
        </mxCell>
        <mxCell id="pNir1XspZ6FCPG3i-Ryd-264" value="" style="shape=mxgraph.mockup.containers.marginRect;rectMarginTop=10;strokeColor=#666666;strokeWidth=1;dashed=0;rounded=1;arcSize=5;recursiveResize=0;html=1;whiteSpace=wrap;" parent="pNir1XspZ6FCPG3i-Ryd-249" vertex="1">
          <mxGeometry x="446" y="62" width="195" height="158" as="geometry" />
        </mxCell>
        <mxCell id="pNir1XspZ6FCPG3i-Ryd-265" value="Integration-Tests" style="shape=rect;strokeColor=none;fillColor=#008cff;strokeWidth=1;dashed=0;rounded=1;arcSize=20;fontColor=#ffffff;fontSize=17;spacing=2;spacingTop=-2;align=left;autosize=1;spacingLeft=4;resizeWidth=0;resizeHeight=0;perimeter=none;html=1;whiteSpace=wrap;" parent="pNir1XspZ6FCPG3i-Ryd-264" vertex="1">
          <mxGeometry x="5" width="150" height="30" as="geometry" />
        </mxCell>
        <mxCell id="pNir1XspZ6FCPG3i-Ryd-266" value="AWS CodeBuild" style="sketch=0;outlineConnect=0;fontColor=#232F3E;gradientColor=none;strokeColor=#ffffff;fillColor=#232F3E;dashed=0;verticalLabelPosition=middle;verticalAlign=bottom;align=center;html=1;whiteSpace=wrap;fontSize=10;fontStyle=1;spacing=3;shape=mxgraph.aws4.productIcon;prIcon=mxgraph.aws4.codebuild;" parent="pNir1XspZ6FCPG3i-Ryd-264" vertex="1">
          <mxGeometry x="35" y="46" width="80" height="110" as="geometry" />
        </mxCell>
        <mxCell id="pNir1XspZ6FCPG3i-Ryd-267" style="edgeStyle=orthogonalEdgeStyle;rounded=0;orthogonalLoop=1;jettySize=auto;html=1;" parent="pNir1XspZ6FCPG3i-Ryd-249" source="pNir1XspZ6FCPG3i-Ryd-268" target="pNir1XspZ6FCPG3i-Ryd-271" edge="1">
          <mxGeometry relative="1" as="geometry" />
        </mxCell>
        <mxCell id="pNir1XspZ6FCPG3i-Ryd-268" value="" style="shape=mxgraph.mockup.containers.marginRect;rectMarginTop=10;strokeColor=#666666;strokeWidth=1;dashed=0;rounded=1;arcSize=5;recursiveResize=0;html=1;whiteSpace=wrap;" parent="pNir1XspZ6FCPG3i-Ryd-249" vertex="1">
          <mxGeometry x="676" y="53" width="193" height="178" as="geometry" />
        </mxCell>
        <mxCell id="pNir1XspZ6FCPG3i-Ryd-269" value="&lt;div&gt;Manual-Approval&lt;/div&gt;&lt;div&gt;To-Prod&lt;/div&gt;" style="shape=rect;strokeColor=none;fillColor=#008cff;strokeWidth=1;dashed=0;rounded=1;arcSize=20;fontColor=#ffffff;fontSize=17;spacing=2;spacingTop=-2;align=left;autosize=1;spacingLeft=4;resizeWidth=0;resizeHeight=0;perimeter=none;html=1;whiteSpace=wrap;" parent="pNir1XspZ6FCPG3i-Ryd-268" vertex="1">
          <mxGeometry x="5" y="-9" width="150" height="50" as="geometry" />
        </mxCell>
        <mxCell id="pNir1XspZ6FCPG3i-Ryd-270" value="Amazon SNS" style="sketch=0;outlineConnect=0;fontColor=#232F3E;gradientColor=none;strokeColor=#ffffff;fillColor=#232F3E;dashed=0;verticalLabelPosition=middle;verticalAlign=bottom;align=center;html=1;whiteSpace=wrap;fontSize=10;fontStyle=1;spacing=3;shape=mxgraph.aws4.productIcon;prIcon=mxgraph.aws4.sns;" parent="pNir1XspZ6FCPG3i-Ryd-268" vertex="1">
          <mxGeometry x="40" y="48" width="80" height="100" as="geometry" />
        </mxCell>
        <mxCell id="pNir1XspZ6FCPG3i-Ryd-367" value="" style="shape=image;html=1;verticalAlign=top;verticalLabelPosition=bottom;labelBackgroundColor=#ffffff;imageAspect=0;aspect=fixed;image=https://cdn4.iconfinder.com/data/icons/web-ui-color/128/Checkmark-128.png" parent="pNir1XspZ6FCPG3i-Ryd-268" vertex="1">
          <mxGeometry x="150" y="132" width="63" height="63" as="geometry" />
        </mxCell>
        <mxCell id="pNir1XspZ6FCPG3i-Ryd-271" value="" style="shape=mxgraph.mockup.containers.marginRect;rectMarginTop=10;strokeColor=#666666;strokeWidth=1;dashed=0;rounded=1;arcSize=5;recursiveResize=0;html=1;whiteSpace=wrap;" parent="pNir1XspZ6FCPG3i-Ryd-249" vertex="1">
          <mxGeometry x="901" y="63" width="180" height="158" as="geometry" />
        </mxCell>
        <mxCell id="pNir1XspZ6FCPG3i-Ryd-272" value="Trigger&lt;br&gt;Prod" style="shape=rect;strokeColor=none;fillColor=#008cff;strokeWidth=1;dashed=0;rounded=1;arcSize=20;fontColor=#ffffff;fontSize=17;spacing=2;spacingTop=-2;align=left;autosize=1;spacingLeft=4;resizeWidth=0;resizeHeight=0;perimeter=none;html=1;whiteSpace=wrap;" parent="pNir1XspZ6FCPG3i-Ryd-271" vertex="1">
          <mxGeometry x="5" y="-9" width="73" height="49" as="geometry" />
        </mxCell>
        <mxCell id="pNir1XspZ6FCPG3i-Ryd-273" value="AWS CodeBuild" style="sketch=0;outlineConnect=0;fontColor=#232F3E;gradientColor=none;strokeColor=#ffffff;fillColor=#232F3E;dashed=0;verticalLabelPosition=middle;verticalAlign=bottom;align=center;html=1;whiteSpace=wrap;fontSize=10;fontStyle=1;spacing=3;shape=mxgraph.aws4.productIcon;prIcon=mxgraph.aws4.codebuild;" parent="pNir1XspZ6FCPG3i-Ryd-271" vertex="1">
          <mxGeometry x="35" y="48" width="80" height="110" as="geometry" />
        </mxCell>
        <mxCell id="pNir1XspZ6FCPG3i-Ryd-274" style="edgeStyle=orthogonalEdgeStyle;rounded=0;orthogonalLoop=1;jettySize=auto;html=1;strokeWidth=5;jumpStyle=arc;" parent="1" source="pNir1XspZ6FCPG3i-Ryd-220" target="pNir1XspZ6FCPG3i-Ryd-251" edge="1">
          <mxGeometry relative="1" as="geometry">
            <Array as="points">
              <mxPoint x="1350" y="1096" />
              <mxPoint x="1350" y="1096" />
            </Array>
          </mxGeometry>
        </mxCell>
        <mxCell id="pNir1XspZ6FCPG3i-Ryd-275" value="" style="shape=mxgraph.mockup.containers.marginRect;rectMarginTop=10;strokeColor=#666666;strokeWidth=1;dashed=0;rounded=1;arcSize=5;recursiveResize=0;html=1;whiteSpace=wrap;" parent="1" vertex="1">
          <mxGeometry x="2580" y="949" width="670" height="300" as="geometry" />
        </mxCell>
        <mxCell id="pNir1XspZ6FCPG3i-Ryd-276" value="&lt;div&gt;Prod&lt;/div&gt;" style="shape=rect;strokeColor=none;fillColor=#008cff;strokeWidth=1;dashed=0;rounded=1;arcSize=20;fontColor=#ffffff;fontSize=17;spacing=2;spacingTop=-2;align=left;autosize=1;spacingLeft=4;resizeWidth=0;resizeHeight=0;perimeter=none;html=1;whiteSpace=wrap;" parent="pNir1XspZ6FCPG3i-Ryd-275" vertex="1">
          <mxGeometry x="5" width="60" height="30" as="geometry" />
        </mxCell>
        <mxCell id="pNir1XspZ6FCPG3i-Ryd-277" value="" style="shape=mxgraph.mockup.containers.marginRect;rectMarginTop=10;strokeColor=#666666;strokeWidth=1;dashed=0;rounded=1;arcSize=5;recursiveResize=0;html=1;whiteSpace=wrap;" parent="pNir1XspZ6FCPG3i-Ryd-275" vertex="1">
          <mxGeometry x="30" y="72" width="150" height="138" as="geometry" />
        </mxCell>
        <mxCell id="pNir1XspZ6FCPG3i-Ryd-278" value="Source" style="shape=rect;strokeColor=none;fillColor=#008cff;strokeWidth=1;dashed=0;rounded=1;arcSize=20;fontColor=#ffffff;fontSize=17;spacing=2;spacingTop=-2;align=left;autosize=1;spacingLeft=4;resizeWidth=0;resizeHeight=0;perimeter=none;html=1;whiteSpace=wrap;" parent="pNir1XspZ6FCPG3i-Ryd-277" vertex="1">
          <mxGeometry x="5" width="80" height="30" as="geometry" />
        </mxCell>
        <mxCell id="pNir1XspZ6FCPG3i-Ryd-279" value="Amazon S3" style="sketch=0;outlineConnect=0;fontColor=#232F3E;gradientColor=none;strokeColor=#ffffff;fillColor=#232F3E;dashed=0;verticalLabelPosition=middle;verticalAlign=bottom;align=center;html=1;whiteSpace=wrap;fontSize=10;fontStyle=1;spacing=3;shape=mxgraph.aws4.productIcon;prIcon=mxgraph.aws4.s3;" parent="pNir1XspZ6FCPG3i-Ryd-277" vertex="1">
          <mxGeometry x="35" y="38" width="80" height="100" as="geometry" />
        </mxCell>
        <mxCell id="pNir1XspZ6FCPG3i-Ryd-281" style="edgeStyle=orthogonalEdgeStyle;rounded=0;orthogonalLoop=1;jettySize=auto;html=1;" parent="pNir1XspZ6FCPG3i-Ryd-275" target="pNir1XspZ6FCPG3i-Ryd-286" edge="1">
          <mxGeometry relative="1" as="geometry">
            <mxPoint x="180" y="140" as="sourcePoint" />
          </mxGeometry>
        </mxCell>
        <mxCell id="pNir1XspZ6FCPG3i-Ryd-285" style="edgeStyle=orthogonalEdgeStyle;rounded=0;orthogonalLoop=1;jettySize=auto;html=1;" parent="pNir1XspZ6FCPG3i-Ryd-275" source="pNir1XspZ6FCPG3i-Ryd-286" edge="1">
          <mxGeometry relative="1" as="geometry">
            <mxPoint x="440" y="140" as="targetPoint" />
          </mxGeometry>
        </mxCell>
        <mxCell id="pNir1XspZ6FCPG3i-Ryd-286" value="" style="shape=mxgraph.mockup.containers.marginRect;rectMarginTop=10;strokeColor=#666666;strokeWidth=1;dashed=0;rounded=1;arcSize=5;recursiveResize=0;html=1;whiteSpace=wrap;" parent="pNir1XspZ6FCPG3i-Ryd-275" vertex="1">
          <mxGeometry x="225" y="61" width="180" height="158" as="geometry" />
        </mxCell>
        <mxCell id="pNir1XspZ6FCPG3i-Ryd-287" value="Deployment" style="shape=rect;strokeColor=none;fillColor=#008cff;strokeWidth=1;dashed=0;rounded=1;arcSize=20;fontColor=#ffffff;fontSize=17;spacing=2;spacingTop=-2;align=left;autosize=1;spacingLeft=4;resizeWidth=0;resizeHeight=0;perimeter=none;html=1;whiteSpace=wrap;" parent="pNir1XspZ6FCPG3i-Ryd-286" vertex="1">
          <mxGeometry x="5" width="120" height="30" as="geometry" />
        </mxCell>
        <mxCell id="pNir1XspZ6FCPG3i-Ryd-288" value="AWS CodeBuild" style="sketch=0;outlineConnect=0;fontColor=#232F3E;gradientColor=none;strokeColor=#ffffff;fillColor=#232F3E;dashed=0;verticalLabelPosition=middle;verticalAlign=bottom;align=center;html=1;whiteSpace=wrap;fontSize=10;fontStyle=1;spacing=3;shape=mxgraph.aws4.productIcon;prIcon=mxgraph.aws4.codebuild;" parent="pNir1XspZ6FCPG3i-Ryd-286" vertex="1">
          <mxGeometry x="35" y="46" width="80" height="110" as="geometry" />
        </mxCell>
        <mxCell id="pNir1XspZ6FCPG3i-Ryd-290" value="" style="shape=mxgraph.mockup.containers.marginRect;rectMarginTop=10;strokeColor=#666666;strokeWidth=1;dashed=0;rounded=1;arcSize=5;recursiveResize=0;html=1;whiteSpace=wrap;" parent="pNir1XspZ6FCPG3i-Ryd-275" vertex="1">
          <mxGeometry x="445" y="66" width="195" height="158" as="geometry" />
        </mxCell>
        <mxCell id="pNir1XspZ6FCPG3i-Ryd-291" value="Integration-Tests" style="shape=rect;strokeColor=none;fillColor=#008cff;strokeWidth=1;dashed=0;rounded=1;arcSize=20;fontColor=#ffffff;fontSize=17;spacing=2;spacingTop=-2;align=left;autosize=1;spacingLeft=4;resizeWidth=0;resizeHeight=0;perimeter=none;html=1;whiteSpace=wrap;" parent="pNir1XspZ6FCPG3i-Ryd-290" vertex="1">
          <mxGeometry x="5" width="150" height="30" as="geometry" />
        </mxCell>
        <mxCell id="pNir1XspZ6FCPG3i-Ryd-292" value="AWS CodeBuild" style="sketch=0;outlineConnect=0;fontColor=#232F3E;gradientColor=none;strokeColor=#ffffff;fillColor=#232F3E;dashed=0;verticalLabelPosition=middle;verticalAlign=bottom;align=center;html=1;whiteSpace=wrap;fontSize=10;fontStyle=1;spacing=3;shape=mxgraph.aws4.productIcon;prIcon=mxgraph.aws4.codebuild;" parent="pNir1XspZ6FCPG3i-Ryd-290" vertex="1">
          <mxGeometry x="35" y="45" width="80" height="110" as="geometry" />
        </mxCell>
        <mxCell id="pNir1XspZ6FCPG3i-Ryd-300" style="edgeStyle=orthogonalEdgeStyle;rounded=0;orthogonalLoop=1;jettySize=auto;html=1;strokeWidth=5;" parent="1" source="pNir1XspZ6FCPG3i-Ryd-271" target="pNir1XspZ6FCPG3i-Ryd-277" edge="1">
          <mxGeometry relative="1" as="geometry">
            <Array as="points" />
          </mxGeometry>
        </mxCell>
        <mxCell id="pNir1XspZ6FCPG3i-Ryd-369" style="edgeStyle=orthogonalEdgeStyle;rounded=0;orthogonalLoop=1;jettySize=auto;html=1;dashed=1;strokeWidth=3;" parent="1" source="pNir1XspZ6FCPG3i-Ryd-103" target="pNir1XspZ6FCPG3i-Ryd-2" edge="1">
          <mxGeometry relative="1" as="geometry">
            <Array as="points">
              <mxPoint x="1900" y="70" />
              <mxPoint x="-276" y="70" />
            </Array>
          </mxGeometry>
        </mxCell>
        <mxCell id="pNir1XspZ6FCPG3i-Ryd-372" value="&lt;font style=&quot;font-size: 30px;&quot;&gt;Build Status&lt;br&gt;&lt;/font&gt;" style="edgeLabel;html=1;align=center;verticalAlign=middle;resizable=0;points=[];" parent="pNir1XspZ6FCPG3i-Ryd-369" vertex="1" connectable="0">
          <mxGeometry x="-0.556" y="-1" relative="1" as="geometry">
            <mxPoint x="-1" y="1" as="offset" />
          </mxGeometry>
        </mxCell>
        <mxCell id="pNir1XspZ6FCPG3i-Ryd-370" style="edgeStyle=orthogonalEdgeStyle;rounded=0;orthogonalLoop=1;jettySize=auto;html=1;strokeWidth=3;dashed=1;" parent="1" source="pNir1XspZ6FCPG3i-Ryd-38" edge="1">
          <mxGeometry relative="1" as="geometry">
            <mxPoint x="1908" y="70" as="targetPoint" />
            <Array as="points">
              <mxPoint x="2120" y="655" />
              <mxPoint x="2120" y="70" />
            </Array>
          </mxGeometry>
        </mxCell>
        <mxCell id="pNir1XspZ6FCPG3i-Ryd-371" value="&lt;font style=&quot;font-size: 30px;&quot;&gt;Build Status&lt;br&gt;&lt;/font&gt;" style="edgeLabel;html=1;align=center;verticalAlign=middle;resizable=0;points=[];" parent="pNir1XspZ6FCPG3i-Ryd-370" vertex="1" connectable="0">
          <mxGeometry x="0.187" y="-1" relative="1" as="geometry">
            <mxPoint y="1" as="offset" />
          </mxGeometry>
        </mxCell>
        <mxCell id="pNir1XspZ6FCPG3i-Ryd-237" style="edgeStyle=orthogonalEdgeStyle;rounded=0;orthogonalLoop=1;jettySize=auto;html=1;strokeWidth=5;" parent="1" source="pNir1XspZ6FCPG3i-Ryd-38" target="pNir1XspZ6FCPG3i-Ryd-192" edge="1">
          <mxGeometry relative="1" as="geometry">
            <Array as="points">
              <mxPoint x="1890" y="890" />
              <mxPoint x="50" y="890" />
              <mxPoint x="50" y="1100" />
            </Array>
            <mxPoint x="2760" y="765" as="sourcePoint" />
          </mxGeometry>
        </mxCell>
        <mxCell id="79Mx65BYlUfhvj-uqwjH-1" value="&lt;div align=&quot;left&quot;&gt;ENV Vars:&lt;br&gt;PIPELINES = {&quot;eventType&quot;:&quot;s3-bucket-name&quot;}&lt;br&gt;GIT_SECRET_SM_ARN = &quot;arn:aws:secret:example&quot;&lt;/div&gt;&lt;div align=&quot;left&quot;&gt;LOGGING_LEVEL = &quot;INFO&quot;&lt;br&gt;VALIDATE_DIGITAL_SIGNATURE = &quot;false&quot;&lt;br&gt;&lt;/div&gt;" style="text;html=1;align=center;verticalAlign=middle;whiteSpace=wrap;rounded=0;labelPosition=center;verticalLabelPosition=middle;" vertex="1" parent="1">
          <mxGeometry x="-175" y="600" width="315" height="128" as="geometry" />
        </mxCell>
        <mxCell id="79Mx65BYlUfhvj-uqwjH-6" style="edgeStyle=orthogonalEdgeStyle;rounded=0;orthogonalLoop=1;jettySize=auto;html=1;" edge="1" parent="1" source="pNir1XspZ6FCPG3i-Ryd-243" target="pNir1XspZ6FCPG3i-Ryd-75">
          <mxGeometry relative="1" as="geometry">
            <Array as="points">
              <mxPoint x="150" y="539" />
              <mxPoint x="150" y="327" />
            </Array>
          </mxGeometry>
        </mxCell>
        <mxCell id="79Mx65BYlUfhvj-uqwjH-7" style="edgeStyle=orthogonalEdgeStyle;rounded=0;orthogonalLoop=1;jettySize=auto;html=1;" edge="1" parent="1" source="pNir1XspZ6FCPG3i-Ryd-243" target="pNir1XspZ6FCPG3i-Ryd-20">
          <mxGeometry relative="1" as="geometry">
            <Array as="points">
              <mxPoint x="150" y="539" />
              <mxPoint x="150" y="691" />
            </Array>
          </mxGeometry>
        </mxCell>
        <mxCell id="79Mx65BYlUfhvj-uqwjH-8" value="" style="verticalLabelPosition=bottom;html=1;verticalAlign=top;align=center;strokeColor=none;fillColor=#00BEF2;shape=mxgraph.azure.github_code;pointerEvents=1;" vertex="1" parent="1">
          <mxGeometry x="-468.5" y="514" width="50" height="50" as="geometry" />
        </mxCell>
        <mxCell id="79Mx65BYlUfhvj-uqwjH-9" value="trigger.zip&lt;br&gt;{&lt;br&gt;&amp;nbsp;&amp;nbsp;&amp;nbsp; &quot;SOURCE_REPO_URL&quot;: &quot;repository.clone_url&quot;,&lt;br&gt;&amp;nbsp;&amp;nbsp;&amp;nbsp; &quot;FROM_BRANCH&quot;: &quot;pull_request.head.ref&quot;,&lt;br&gt;&amp;nbsp;&amp;nbsp;&amp;nbsp; &quot;TO_BRANCH&quot;: &quot;pull_request.base.ref&quot;,&lt;br&gt;&amp;nbsp;&amp;nbsp;&amp;nbsp; &quot;MERGE_COMMIT_ID&quot;: &quot;pull_request.head.sha&quot;&lt;br&gt;}" style="text;html=1;align=left;verticalAlign=middle;whiteSpace=wrap;rounded=0;" vertex="1" parent="1">
          <mxGeometry x="160" y="438" width="290" height="150" as="geometry" />
        </mxCell>
      </root>
    </mxGraphModel>
  </diagram>
</mxfile>
